# AST/ASF file generated using VICON BodyLanguage
# -----------------------------------------------
:version 1.10
:name VICON
:units
  mass 1.0
  length 0.45
  angle deg
:documentation
   .ast/.asf automatically generated from VICON data using
   VICON BodyBuilder and BodyLanguage model FoxedUp or BRILLIANT.MOD
:root
   order TX TY TZ RX RY RZ
   axis XYZ
   position 0 0 0  
   orientation 0 0 0 
:bonedata
  begin
     id 1 
     name lhipjoint
     direction 0.630305 -0.712092 0.309259 
     length 2.29033 
     axis 0 0 0  XYZ
  end
  begin
     id 2 
     name lfemur
     direction 0.34202 -0.939693 0  
     length 6.43538  
     axis 0 0 20  XYZ
    dof rx ry rz
    limits (-160.0 20.0)
           (-70.0 70.0)
           (-60.0 70.0)
  end
  begin
     id 3 
     name ltibia
     direction 0.34202 -0.939693 0   
     length 7.43097   
     axis 0 0 20   XYZ
    dof rx
    limits (-10.0 170.0)
  end
  begin
     id 4 
     name lfoot
     direction 0.0334653 -0.0919451 0.995202   
     length 1.78438   
     axis -90 7.62852e-016 20   XYZ
    dof rx rz
    limits (-45.0 90.0)
           (-70.0 20.0)
  end
  begin
     id 5 
     name ltoes
     direction 1.53535e-011 -4.21933e-011 1   
     length 0.90832   
     axis -90 7.62852e-016 20   XYZ
    dof rx
    limits (-90.0 20.0)
  end
  begin
     id 6 
     name rhipjoint
     direction -0.682059 -0.67077 0.291312   
     length 2.43143  
     axis 0 0 0  XYZ 
  end
  begin
     id 7 
     name rfemur
     direction -0.34202 -0.939693 0   
     length 6.63488   
     axis 0 0 -20   XYZ
    dof rx ry rz
    limits (-160.0 20.0)
           (-70.0 70.0)
           (-70.0 60.0)
  end
  begin
     id 8 
     name rtibia
     direction -0.34202 -0.939693 0   
     length 6.86532   
     axis 0 0 -20   XYZ
    dof rx
    limits (-10.0 170.0)
 end
 begin
     id 9 
     name rfoot
     direction -0.105199 -0.289033 0.951521   
     length 1.77126  
     axis -90 -7.62852e-016 -20   XYZ
    dof rx rz
    limits (-45.0 90.0)
           (-20.0 70.0)
  end
  begin
     id 10 
     name rtoes
     direction -1.53551e-011 -4.21978e-011 1   
     length 0.889273   
     axis -90 -7.62852e-016 -20   XYZ
    dof rx
    limits (-90.0 20.0)
  end
  begin
     id 11 
     name lowerback
     direction -0.0514305 0.998089 0.034245   
     length 2.02077   
     axis 0 0 0   XYZ
    dof rx ry rz
    limits (-20.0 45.0)
           (-30.0 30.0)
           (-30.0 30.0)
  end
  begin
     id 12 
     name upperback
     direction 0.0203189 0.999449 -0.0262315   
     length 2.01413   
     axis 0 0 0   XYZ
    dof rx ry rz
    limits (-20.0 45.0)
           (-30.0 30.0)
           (-30.0 30.0)
  end
  begin
     id 13 
     name thorax
     direction 0.0452736 0.998142 -0.0407729   
     length 2.02986   
     axis 0 0 0   XYZ
    dof rx ry rz
    limits (-20.0 45.0)
           (-30.0 30.0)
           (-30.0 30.0)
  end
  begin
     id 14 
     name lowerneck
     direction -0.0180464 0.999645 -0.0195774   
     length 1.59034   
     axis 0 0 0   XYZ
    dof rx ry rz
    limits (-20.0 45.0)
           (-30.0 30.0)
           (-30.0 30.0)
  end
  begin
     id 15 
     name upperneck
     direction 0.0732272 0.979935 -0.18538   
     length 1.57486   
     axis 0 0 0   XYZ
    dof rx ry rz
    limits (-20.0 45.0)
           (-30.0 30.0)
           (-30.0 30.0)
  end
  begin
     id 16
     name head
     direction 0.0252963 0.997909 -0.059472  
     length 1.60334  
     axis 0 0 0   XYZ
    dof rx ry rz
    limits (-20.0 45.0)
           (-30.0 30.0)
           (-30.0 30.0)
  end
  begin
     id 17 
     name lclavicle
     direction 0.943819 0.330449 0.00315172  
     length 3.50322  
     axis 0 0 0   XYZ
    dof ry rz
    limits (-20.0 10.0)
           (0.0 20.0)
  end
  begin
     id 18 
     name lhumerus
     direction 1 -4.48949e-011 2.22502e-028   
     length 4.63208   
     axis 180 -30 -90   XYZ
    dof rx ry rz
    limits (-60.0 90.0)
           (-90.0 90.0)
           (-90.0 90.0)
  end
  begin
     id 19
     name lradius
     direction 1 -4.48967e-011 -4.10197e-027   
     length 3.41924   
     axis 180 -30 -90   XYZ
    dof rx
    limits (-10.0 170.0)
  end
  begin
     id 20
     name lwrist
     direction 1 -4.48987e-011 -1.24264e-027   
     length 1.70962   
     axis 2.50585e-015 90 90   XYZ
    dof ry
    limits (-180.0 0.0)
 end
  begin
     id 21 
     name lhand
     direction 1 -4.48983e-011 -2.48528e-027   
     length 0.62537   
     axis 1.58582e-015 90 90   XYZ
    dof rx rz
    limits (-90.0 90.0)
           (-45.0 45.0)
  end
  begin
     id 22 
     name lfingers
     direction 1 -4.48896e-011 -4.97056e-027   
     length 0.50419   
     axis 3.17164e-015 90 90   XYZ
    dof rx
    limits (0.0 90.0)
  end
  begin
     id 23
     name lthumb
     direction 0.707107 -6.34803e-011 0.707107   
     length 0.723919   
     axis -90 45 2.85299e-015   XYZ
    dof rx rz
    limits (-45.0 45.0)
           (-45.0 45.0)
  end
  begin
     id 24 
     name rclavicle
     direction -0.964499 0.260664 -0.0423695   
     length 3.91997  
     axis 0 0 0   XYZ 
    dof ry rz
    limits (-10.0 20.0)
           (-20.0 0.0)
  end
  begin
     id 25 
     name rhumerus
     direction -1 -4.48957e-011 -1.98656e-027  
     length 4.4064   
     axis 180 30 90   XYZ
    dof rx ry rz
    limits (-90.0 60.0)
           (-90.0 90.0)
           (-90.0 90.0)
  end
  begin
     id 26 
     name rradius
     direction -1 -4.48968e-011 1.96972e-027   
     length 3.44675   
     axis 180 30 90   XYZ
    dof rx
    limits (-10.0 170.0)
  end
  begin
     id 27 
     name rwrist
     direction -1 -4.48974e-011 -1.24264e-027   
     length 1.72338   
     axis 2.50585e-015 -90 -90   XYZ
    dof ry
    limits (-180.0 0.0)
  end
  begin
     id 28
     name rhand
     direction -1 -4.48901e-011 -2.48528e-027   
     length 0.513674   
     axis 1.58582e-015 -90 -90   XYZ
    dof rx rz
    limits (-90.0 90.0)
           (-45.0 45.0)
  end
  begin
     id 29
     name rfingers
     direction -1 -4.48946e-011 -4.97056e-027   
     length 0.414137   
     axis 3.17164e-015 -90 -90   XYZ
    dof rx
    limits (0.0 90.0)
  end
  begin
     id 30
     name rthumb
     direction -0.707107 -6.34859e-011 0.707107   
     length 0.59462   
     axis -90 -45 -2.85299e-015   XYZ
    dof rx rz
    limits (-45.0 45.0)
           (-45.0 45.0)
  end
:hierarchy
  begin
    root lhipjoint rhipjoint lowerback
    lhipjoint lfemur
    lfemur ltibia
    ltibia lfoot
    lfoot ltoes
    rhipjoint rfemur
    rfemur rtibia
    rtibia rfoot
    rfoot rtoes
    lowerback upperback
    upperback thorax
    thorax lowerneck lclavicle rclavicle
    lowerneck upperneck
    upperneck head
    lclavicle lhumerus
    lhumerus lradius
    lradius lwrist
    lwrist lhand lthumb
    lhand lfingers
    rclavicle rhumerus
    rhumerus rradius
    rradius rwrist
    rwrist rhand rthumb
    rhand rfingers
  end

#!OML:ASF E:\inclinewalkrobotboard\Project 1\Capture day 1\Session 1\subject1.ASF
:FULLY-SPECIFIED
:DEGREES
174
root 10.9515 15.7676 11.2433 26.7583 -75.1751 -1.87663
lowerback 9.91589 -1.38009 -12.9396
upperback 3.02622 -3.17085 -0.0261956
thorax -1.65032 -1.65114 7.5949
lowerneck 2.73744 -12.561 -5.63166
upperneck -14.3995 -16.0374 15.805
head -2.89995 -8.75985 6.02035
rclavicle 2.62396e-014 3.18055e-014
rhumerus -48.8263 -41.7481 -40.7289
rradius 74.7945
rwrist -39.8124
rhand -14.6893 -22.8734
rfingers 7.12502
rthumb 11.4644 -52.54
lclavicle 2.62396e-014 3.18055e-014
lhumerus -18.5037 -49.7443 104.765
lradius 98.4373
lwrist -12.2159
lhand -54.8168 -38.382
lfingers 7.12502
lthumb -27.2049 -10.3236
rfemur -12.1162 12.9629 -14.0789
rtibia 7.76297
rfoot 7.62233 -40.7569
rtoes 20.0466
lfemur -52.8565 3.85056 -12.2639
ltibia 41.4171
lfoot -15.6251 9.4652
ltoes -67.6966
175
root 10.9388 15.7674 11.2292 26.3219 -75.3826 -1.40463
lowerback 10.1374 -1.52147 -13.2535
upperback 3.08356 -3.41467 0.103051
thorax -1.62652 -1.77892 7.9417
lowerneck 2.30036 -13.4549 -6.07665
upperneck -13.7644 -17.2537 16.7176
head -2.37737 -9.36958 6.22349
rclavicle -5.56597e-015 2.8625e-014
rhumerus -48.2588 -41.7206 -40.7514
rradius 74.587
rwrist -39.8695
rhand -14.2711 -22.6662
rfingers 7.12502
rthumb 11.8677 -52.3099
lclavicle -5.56597e-015 2.8625e-014
lhumerus -18.6705 -49.1359 104.645
lradius 98.8177
lwrist -12.1654
lhand -54.909 -38.05
lfingers 7.12502
lthumb -27.2932 -10.0054
rfemur -12.2061 12.7436 -14.2833
rtibia 7.7561
rfoot 9.514 -39.9062
rtoes 15.5425
lfemur -52.8576 3.97561 -12.4086
ltibia 41.5025
lfoot -15.6067 9.51864
ltoes -67.5924
176
root 10.9277 15.7666 11.2177 26.1954 -75.5695 -1.2449
lowerback 10.3437 -1.73529 -13.4783
upperback 3.09651 -3.74427 0.263164
thorax -1.62117 -1.94515 8.28073
lowerneck 2.12235 -13.8709 -6.88695
upperneck -13.5154 -17.8111 17.9007
head -2.00867 -9.66874 6.60615
rclavicle 3.02153e-014 -1.27222e-014
rhumerus -47.5506 -41.522 -40.9334
rradius 74.47
rwrist -40.1153
rhand -13.9513 -23.1279
rfingers 7.12502
rthumb 12.176 -52.7535
lclavicle 3.02153e-014 -1.27222e-014
lhumerus -18.8497 -48.3666 104.493
lradius 99.205
lwrist -12.0223
lhand -55.0517 -38.0604
lfingers 7.12502
lthumb -27.4296 -10.0373
rfemur -12.2945 12.7073 -14.4087
rtibia 7.7825
rfoot 9.52801 -39.4913
rtoes 14.434
lfemur -52.8847 4.05619 -12.4228
ltibia 41.6163
lfoot -15.6443 9.62119
ltoes -67.5384
177
root 10.9165 15.7653 11.2052 26.2338 -75.7488 -1.20805
lowerback 10.4392 -1.9115 -13.5454
upperback 3.09633 -3.99699 0.295141
thorax -1.60557 -2.07208 8.37994
lowerneck 2.72704 -14.0795 -7.90596
upperneck -13.9482 -18.0639 19.2483
head -1.95593 -9.86791 7.18561
rclavicle 1.35174e-014 4.77083e-015
rhumerus -47.1951 -41.5574 -41.0532
rradius 74.3623
rwrist -40.0986
rhand -13.8225 -23.6712
rfingers 7.12502
rthumb 12.3003 -53.2895
lclavicle 1.35174e-014 4.77083e-015
lhumerus -19.1514 -47.8336 104.207
lradius 99.6788
lwrist -11.8267
lhand -54.8837 -38.1339
lfingers 7.12502
lthumb -27.2689 -10.0855
rfemur -12.3801 12.7495 -14.4922
rtibia 7.77077
rfoot 9.04237 -39.4672
rtoes 14.9492
lfemur -52.8844 4.10328 -12.3783
ltibia 41.6209
lfoot -15.5896 9.79035
ltoes -67.4695
178
root 10.9024 15.7649 11.1907 26.0001 -75.9855 -0.967116
lowerback 10.5487 -1.98371 -13.6628
upperback 3.14128 -4.12094 0.265878
thorax -1.58077 -2.13882 8.42972
lowerneck 2.71682 -14.2103 -8.04897
upperneck -14.0284 -18.2148 19.9132
head -1.86852 -9.98422 7.38765
rclavicle 7.15625e-015 -2.70347e-014
rhumerus -47.0056 -41.7946 -41.1207
rradius 74.2285
rwrist -39.9676
rhand -14.2575 -23.7044
rfingers 7.12502
rthumb 11.8808 -53.3473
lclavicle 7.15625e-015 -2.70347e-014
lhumerus -19.5137 -47.4735 103.99
lradius 100.14
lwrist -11.7318
lhand -54.6865 -37.9819
lfingers 7.12502
lthumb -27.0803 -9.90399
rfemur -12.3711 12.8419 -14.5985
rtibia 7.72558
rfoot 8.29534 -39.4605
rtoes 16.2436
lfemur -52.7031 4.22839 -12.4217
ltibia 41.4851
lfoot -15.4933 9.89593
ltoes -67.4326
179
root 10.8893 15.7646 11.1736 25.589 -76.1686 -0.545051
lowerback 10.673 -2.07757 -13.8656
upperback 3.19187 -4.28201 0.302005
thorax -1.53571 -2.22656 8.60216
lowerneck 2.67994 -14.1314 -6.8878
upperneck -14.7529 -18.0194 19.4243
head -2.27107 -9.94968 7.15491
rclavicle -2.38542e-014 -1.74931e-014
rhumerus -46.6169 -41.9539 -41.3226
rradius 74.0575
rwrist -39.9463
rhand -14.6257 -23.5324
rfingers 7.12502
rthumb 11.5257 -53.1955
lclavicle -2.38542e-014 -1.74931e-014
lhumerus -19.8231 -47.0267 103.876
lradius 100.547
lwrist -11.6732
lhand -54.8352 -37.9118
lfingers 7.12502
lthumb -27.2225 -9.85612
rfemur -12.3163 12.9997 -14.7061
rtibia 7.68601
rfoot 6.64075 -39.627
rtoes 19.0933
lfemur -52.5771 4.35957 -12.5083
ltibia 41.3971
lfoot -15.4527 9.93441
ltoes -67.4813
180
root 10.879 15.7644 11.1585 25.4834 -76.2643 -0.324282
lowerback 10.6879 -2.14521 -13.886
upperback 3.20435 -4.37437 0.315707
thorax -1.50456 -2.27563 8.63616
lowerneck 2.7901 -14.4655 -4.09018
upperneck -15.7563 -18.4208 17.0185
head -3.08822 -10.1847 6.18916
rclavicle -3.97569e-015 4.29375e-014
rhumerus -46.5168 -42.1936 -41.3624
rradius 73.9349
rwrist -39.9441
rhand -14.6275 -23.585
rfingers 7.12502
rthumb 11.524 -53.2482
lclavicle -3.97569e-015 4.29375e-014
lhumerus -20.1271 -46.8822 103.825
lradius 100.864
lwrist -11.5034
lhand -55.2014 -38.1952
lfingers 7.12502
lthumb -27.5728 -10.1948
rfemur -12.3418 12.947 -14.7231
rtibia 7.60654
rfoot 5.85445 -39.5518
rtoes 19.4188
lfemur -52.6443 4.45605 -12.5198
ltibia 41.3753
lfoot -15.4453 9.96571
ltoes -67.5171
181
root 10.8708 15.7664 11.1463 25.6614 -76.3473 -0.379496
lowerback 10.6873 -2.09594 -13.7276
upperback 3.19627 -4.29399 0.290768
thorax -1.54841 -2.23116 8.51417
lowerneck 3.51716 -14.487 -4.0782
upperneck -16.788 -18.3353 17.607
head -3.46327 -10.2508 6.49611
rclavicle -5.08889e-014 -2.38542e-014
rhumerus -46.8715 -42.5511 -41.055
rradius 73.9039
rwrist -40.1162
rhand -14.5728 -23.5271
rfingers 7.12502
rthumb 11.5768 -53.1874
lclavicle -5.08889e-014 -2.38542e-014
lhumerus -20.5028 -47.1604 103.9
lradius 101.141
lwrist -11.229
lhand -55.2875 -38.6024
lfingers 7.12502
lthumb -27.6551 -10.6153
rfemur -12.3923 12.6803 -14.6401
rtibia 7.48124
rfoot 6.00572 -39.1349
rtoes 17.4168
lfemur -52.7079 4.54049 -12.452
ltibia 41.3186
lfoot -15.461 10.0366
ltoes -67.5398
182
root 10.8652 15.7696 11.1312 25.6238 -76.4806 -0.24853
lowerback 10.7125 -2.11799 -13.6779
upperback 3.20415 -4.32046 0.313343
thorax -1.54958 -2.24464 8.51424
lowerneck 2.69731 -14.8671 -4.62972
upperneck -15.4582 -18.9293 18.2099
head -2.74153 -10.4764 6.53758
rclavicle -6.59965e-014 -5.40694e-014
rhumerus -46.7975 -42.6636 -41.1033
rradius 73.9055
rwrist -40.3164
rhand -14.523 -23.1318
rfingers 7.12502
rthumb 11.6247 -52.7893
lclavicle -6.59965e-014 -5.40694e-014
lhumerus -20.7457 -47.1125 103.887
lradius 101.425
lwrist -11.0847
lhand -55.0073 -38.5472
lfingers 7.12502
lthumb -27.3871 -10.5174
rfemur -12.4353 12.4833 -14.6267
rtibia 7.34229
rfoot 6.3158 -38.8489
rtoes 15.7476
lfemur -52.7046 4.59978 -12.4132
ltibia 41.2248
lfoot -15.4943 10.1693
ltoes -67.4825
183
root 10.8604 15.7728 11.1143 25.2339 -76.7077 0.218156
lowerback 10.7085 -2.15614 -13.7362
upperback 3.22385 -4.37586 0.309036
thorax -1.50803 -2.2768 8.54549
lowerneck 2.73298 -15.4402 -5.27171
upperneck -14.2396 -19.7636 19.1765
head -2.1112 -10.8618 6.75886
rclavicle 2.38542e-014 -4.45278e-014
rhumerus -46.5516 -42.6534 -41.3319
rradius 73.8873
rwrist -40.1662
rhand -14.4708 -23.0742
rfingers 7.12502
rthumb 11.6751 -52.7289
lclavicle 2.38542e-014 -4.45278e-014
lhumerus -20.8585 -46.8585 103.79
lradius 101.62
lwrist -11.0515
lhand -54.7617 -38.1151
lfingers 7.12502
lthumb -27.1522 -10.0483
rfemur -12.5045 12.4575 -14.7714
rtibia 7.19212
rfoot 5.91496 -38.9116
rtoes 16.331
lfemur -52.6384 4.68767 -12.4706
ltibia 41.0755
lfoot -15.5185 10.3094
ltoes -67.4816
184
root 10.8565 15.7775 11.0961 25.2044 -76.9186 0.302968
lowerback 10.7122 -2.09998 -13.7135
upperback 3.22979 -4.30091 0.292481
thorax -1.52558 -2.23871 8.50893
lowerneck 2.89755 -15.4789 -5.17036
upperneck -14.4346 -19.7865 19.2997
head -2.18941 -10.9013 6.80892
rclavicle -3.81667e-014 5.88403e-014
rhumerus -46.5779 -42.7351 -41.325
rradius 73.8166
rwrist -40.0529
rhand -14.4376 -23.5236
rfingers 7.12502
rthumb 11.7072 -53.1765
lclavicle -3.81667e-014 5.88403e-014
lhumerus -20.987 -46.8117 103.703
lradius 101.763
lwrist -10.9685
lhand -54.8237 -38.111
lfingers 7.12502
lthumb -27.2115 -10.0535
rfemur -12.6341 12.5261 -14.8043
rtibia 7.10502
rfoot 5.26053 -39.2875
rtoes 17.6215
lfemur -52.5302 4.82079 -12.4182
ltibia 40.8664
lfoot -15.5324 10.4367
ltoes -67.6445
185
root 10.8536 15.7831 11.0731 25.5608 -77.0326 0.013443
lowerback 10.7037 -2.03259 -13.6793
upperback 3.24496 -4.20445 0.343931
thorax -1.52668 -2.19188 8.53652
lowerneck 2.78239 -15.4653 -5.0476
upperneck -14.4483 -19.7642 19.2129
head -2.2007 -10.888 6.76147
rclavicle 7.15625e-015 -3.97569e-014
rhumerus -46.5483 -42.8289 -41.3446
rradius 73.7273
rwrist -40.2085
rhand -14.4308 -23.768
rfingers 7.12502
rthumb 11.7137 -53.4205
lclavicle 7.15625e-015 -3.97569e-014
lhumerus -21.0269 -46.8243 103.58
lradius 101.926
lwrist -10.9136
lhand -54.9505 -38.3529
lfingers 7.12502
lthumb -27.3328 -10.3145
rfemur -12.7955 12.5336 -14.6723
rtibia 7.10888
rfoot 5.48199 -39.5844
rtoes 17.2393
lfemur -52.4422 4.96392 -12.2328
ltibia 40.6376
lfoot -15.4961 10.5369
ltoes -67.7615
186
root 10.8515 15.7868 11.0496 25.1327 -77.0892 0.511421
lowerback 10.7081 -1.96519 -13.7847
upperback 3.25499 -4.12547 0.392424
thorax -1.52517 -2.15433 8.64208
lowerneck 2.62246 -15.4639 -5.00605
upperneck -14.2307 -19.7883 18.9343
head -2.14475 -10.8671 6.64823
rclavicle 5.1684e-014 -6.36111e-015
rhumerus -46.5712 -42.8602 -41.2972
rradius 73.7176
rwrist -40.3563
rhand -14.5942 -23.8205
rfingers 7.12502
rthumb 11.5561 -53.4819
lclavicle 5.1684e-014 -6.36111e-015
lhumerus -20.9994 -46.8261 103.637
lradius 101.976
lwrist -10.9404
lhand -54.9247 -38.106
lfingers 7.12502
lthumb -27.3081 -10.0637
rfemur -12.8577 12.3538 -14.6951
rtibia 7.14307
rfoot 6.42255 -39.3959
rtoes 14.5348
lfemur -52.3202 4.91921 -12.2213
ltibia 40.344
lfoot -15.4086 10.6403
ltoes -67.8359
187
root 10.853 15.79 11.0281 24.1981 -77.0637 1.49708
lowerback 10.7879 -1.9552 -13.8619
upperback 3.23769 -4.13397 0.401703
thorax -1.57873 -2.15409 8.70265
lowerneck 2.65821 -15.409 -5.17215
upperneck -14.2332 -19.7184 18.9488
head -2.13979 -10.8253 6.67923
rclavicle 3.18055e-015 1.59028e-015
rhumerus -46.5232 -42.7925 -41.2902
rradius 73.7222
rwrist -40.5038
rhand -14.7382 -23.841
rfingers 7.12502
rthumb 11.4172 -53.5102
lclavicle 3.18055e-015 1.59028e-015
lhumerus -20.965 -46.7097 103.778
lradius 101.893
lwrist -10.9773
lhand -54.9086 -37.7821
lfingers 7.12502
lthumb -27.2927 -9.73738
rfemur -12.8016 12.0835 -14.8185
rtibia 7.18031
rfoot 6.57324 -39.1924
rtoes 12.5849
lfemur -52.2054 4.71147 -12.3221
ltibia 40.04
lfoot -15.3086 10.7297
ltoes -67.8335
188
root 10.8569 15.7941 11.0051 23.8516 -76.9704 1.92188
lowerback 10.8235 -2.03546 -13.8326
upperback 3.22859 -4.2392 0.476216
thorax -1.57784 -2.20589 8.77858
lowerneck 2.5511 -15.2517 -5.34129
upperneck -13.9798 -19.5369 18.8139
head -2.06624 -10.7016 6.6445
rclavicle 2.70347e-014 -9.54166e-015
rhumerus -46.0821 -42.6505 -41.5469
rradius 73.6431
rwrist -40.7011
rhand -14.7339 -23.7138
rfingers 7.12502
rthumb 11.4214 -53.3827
lclavicle 2.70347e-014 -9.54166e-015
lhumerus -20.8281 -46.3563 103.768
lradius 101.798
lwrist -11.0176
lhand -55.0175 -37.858
lfingers 7.12502
lthumb -27.3969 -9.82976
rfemur -12.7418 11.8034 -14.8168
rtibia 7.16558
rfoot 5.40379 -39.2385
rtoes 14.2821
lfemur -52.2286 4.62702 -12.305
ltibia 39.8453
lfoot -15.1899 10.756
ltoes -67.752
